<svg width="1440" height="1111" viewBox="0 0 1440 1111" fill="none" xmlns="http://www.w3.org/2000/svg">
<g clip-path="url(#clip0_177_4022)">
<path d="M1473 -5H-34V1111H1473V-5Z" fill="#C1F0FF"/>
<g filter="url(#filter0_f_177_4022)">
<path d="M871.874 1337.92C1202.02 1337.92 1469.65 1040.63 1469.65 673.9C1469.65 307.172 1202.02 9.87988 871.874 9.87988C541.731 9.87988 274.098 307.172 274.098 673.9C274.098 1040.63 541.731 1337.92 871.874 1337.92Z" fill="#02455A"/>
<path d="M1191.69 1589.02C1521.84 1589.02 1789.47 1291.73 1789.47 925C1789.47 558.272 1521.84 260.98 1191.69 260.98C861.55 260.98 593.916 558.272 593.916 925C593.916 1291.73 861.55 1589.02 1191.69 1589.02Z" fill="#C1F0FF"/>
<path d="M235.585 1099.84C565.728 1099.84 833.362 802.548 833.362 435.82C833.362 69.0919 565.728 -228.2 235.585 -228.2C-94.5577 -228.2 -362.191 69.0919 -362.191 435.82C-362.191 802.548 -94.5577 1099.84 235.585 1099.84Z" fill="#02455A"/>
<path d="M1439.51 1077.52C1769.65 1077.52 2037.29 780.228 2037.29 413.5C2037.29 46.7719 1769.65 -250.52 1439.51 -250.52C1109.37 -250.52 841.734 46.7719 841.734 413.5C841.734 780.228 1109.37 1077.52 1439.51 1077.52Z" fill="#02455A"/>
<path d="M56.4193 1509.04C386.562 1509.04 654.196 1211.75 654.196 845.02C654.196 478.292 386.562 181 56.4193 181C-273.724 181 -541.357 478.292 -541.357 845.02C-541.357 1211.75 -273.724 1509.04 56.4193 1509.04Z" fill="#C1F0FF"/>
<path d="M380.425 1521.78C710.568 1521.78 978.202 1224.49 978.202 857.76C978.202 491.032 710.568 193.74 380.425 193.74C50.2822 193.74 -217.352 491.032 -217.352 857.76C-217.352 1224.49 50.2822 1521.78 380.425 1521.78Z" fill="#02455A"/>
</g>
</g>
<defs>
<filter id="filter0_f_177_4022" x="-863.357" y="-572.52" width="3222.64" height="2483.54" filterUnits="userSpaceOnUse" color-interpolation-filters="sRGB">
<feFlood flood-opacity="0" result="BackgroundImageFix"/>
<feBlend mode="normal" in="SourceGraphic" in2="BackgroundImageFix" result="shape"/>
<feGaussianBlur stdDeviation="161" result="effect1_foregroundBlur_177_4022"/>
</filter>
<clipPath id="clip0_177_4022">
<rect width="1507" height="1116" fill="white" transform="translate(-34 -5)"/>
</clipPath>
</defs>
</svg>
