<svg width="166" height="55" viewBox="0 0 166 55" fill="none" xmlns="http://www.w3.org/2000/svg">
<g clip-path="url(#clip0_181_4042)">
<path d="M152.353 0.00017875H14.0282C13.5239 0.00017875 13.0258 0.00017875 12.5229 0.00292875C12.1019 0.00567875 11.6843 0.0136675 11.2593 0.0203913C10.3361 0.0312562 9.41493 0.112484 8.50398 0.263368C7.59431 0.417536 6.71314 0.708188 5.89027 1.12549C5.06841 1.54633 4.31744 2.09316 3.66463 2.74615C3.00838 3.3973 2.46136 4.14995 2.04457 4.97515C1.62664 5.7987 1.33685 6.68122 1.1852 7.59221C1.03211 8.50206 0.949729 9.42239 0.9388 10.345C0.92604 10.7665 0.924692 11.1895 0.917969 11.6111V43.3933C0.924692 43.8202 0.92604 44.2338 0.9388 44.6609C0.949732 45.5834 1.03211 46.5037 1.1852 47.4135C1.33643 48.325 1.62624 49.208 2.04457 50.0319C2.46117 50.8544 3.00827 51.604 3.66463 52.2516C4.31497 52.9074 5.06642 53.4547 5.89027 53.8723C6.71314 54.2907 7.59421 54.5831 8.50398 54.7396C9.41508 54.8893 10.3361 54.9706 11.2593 54.9827C11.6843 54.9921 12.1019 54.9974 12.5229 54.9974C13.0258 55.0002 13.524 55.0002 14.0282 55.0002H152.353C152.847 55.0002 153.35 55.0002 153.844 54.9974C154.263 54.9974 154.692 54.9921 155.111 54.9827C156.033 54.9712 156.952 54.8899 157.861 54.7396C158.774 54.582 159.658 54.2897 160.485 53.8723C161.308 53.4544 162.059 52.9072 162.709 52.2516C163.363 51.6015 163.912 50.8524 164.334 50.0319C164.749 49.2074 165.036 48.3245 165.185 47.4135C165.338 46.5036 165.423 45.5835 165.44 44.6609C165.445 44.2338 165.445 43.8202 165.445 43.3933C165.456 42.8937 165.456 42.3969 165.456 41.8893V13.1124C165.456 12.6088 165.456 12.1093 165.445 11.6111C165.445 11.1895 165.445 10.7665 165.44 10.3449C165.423 9.42226 165.338 8.50213 165.185 7.59216C165.035 6.68169 164.748 5.79925 164.334 4.97509C163.485 3.32107 162.139 1.97471 160.485 1.12537C159.658 0.709084 158.774 0.418509 157.861 0.263244C156.952 0.111695 156.033 0.0304394 155.111 0.0201987C154.692 0.0134887 154.263 0.00543125 153.844 0.00275C153.35 0 152.847 0 152.353 0V0.00017875Z" fill="#A6A6A6"/>
<path d="M12.5304 53.7969C12.1115 53.7969 11.7026 53.7915 11.287 53.7822C10.4259 53.7709 9.56691 53.696 8.71693 53.5579C7.92436 53.4214 7.15658 53.1675 6.43891 52.8045C5.72782 52.4446 5.07924 51.9726 4.51803 51.4067C3.9487 50.8475 3.47471 50.1988 3.11483 49.4865C2.75099 48.7696 2.49919 48.0011 2.36821 47.2079C2.22675 46.3555 2.15022 45.4937 2.13927 44.6297C2.13055 44.3398 2.11914 43.3742 2.11914 43.3742V11.611C2.11914 11.611 2.1313 10.6603 2.13934 10.381C2.14982 9.51841 2.22591 8.6579 2.36694 7.80688C2.49817 7.01147 2.75017 6.24078 3.1142 5.52149C3.47275 4.80967 3.94412 4.16056 4.51002 3.59931C5.07528 3.03273 5.72593 2.55833 6.43824 2.19341C7.15426 1.83163 7.92059 1.57951 8.71155 1.4455C9.56432 1.30602 10.4263 1.23062 11.2904 1.21991L12.5311 1.20312H153.838L155.093 1.22059C155.95 1.23076 156.804 1.30549 157.649 1.44415C158.448 1.57984 159.222 1.83372 159.946 2.19744C161.373 2.93286 162.534 4.09635 163.267 5.52485C163.625 6.23917 163.873 7.00357 164.003 7.79211C164.145 8.65011 164.225 9.51739 164.242 10.387C164.246 10.7764 164.246 11.1947 164.246 11.611C164.256 12.1266 164.256 12.6174 164.256 13.1122V41.8891C164.256 42.3886 164.256 42.8761 164.246 43.3675C164.246 43.8147 164.246 44.2243 164.24 44.6458C164.224 45.5 164.146 46.3517 164.005 47.1944C163.877 47.9934 163.627 48.7678 163.263 49.4906C162.9 50.1952 162.429 50.8382 161.866 51.396C161.305 51.9649 160.655 52.4397 159.942 52.8019C159.22 53.1677 158.447 53.4225 157.649 53.5579C156.799 53.6967 155.94 53.7717 155.078 53.7822C154.676 53.7915 154.254 53.7969 153.845 53.7969L152.354 53.7996L12.5304 53.7969Z" fill="black"/>
<path d="M34.9752 27.9134C34.99 26.7658 35.2948 25.6405 35.8614 24.6423C36.4279 23.6441 37.2377 22.8055 38.2155 22.2044C37.5943 21.3173 36.7749 20.5872 35.8223 20.0722C34.8696 19.5572 33.81 19.2714 32.7276 19.2375C30.4187 18.9952 28.1803 20.6192 27.0036 20.6192C25.8043 20.6192 23.9927 19.2616 22.042 19.3017C20.7802 19.3425 19.5504 19.7094 18.4726 20.3668C17.3948 21.0241 16.5056 21.9494 15.8917 23.0526C13.2324 27.6566 15.216 34.4231 17.7633 38.1447C19.0378 39.967 20.5273 42.0027 22.4763 41.9305C24.3835 41.8514 25.0958 40.7143 27.398 40.7143C29.6788 40.7143 30.3471 41.9305 32.3356 41.8846C34.3822 41.8513 35.6716 40.0541 36.9013 38.2145C37.8171 36.916 38.5217 35.4809 38.9892 33.9623C37.8002 33.4594 36.7856 32.6177 36.0718 31.542C35.358 30.4664 34.9766 29.2044 34.9752 27.9134Z" fill="white"/>
<path d="M31.2199 16.7898C32.3357 15.4503 32.8855 13.7286 32.7523 11.9902C31.0476 12.1693 29.4728 12.9841 28.3419 14.2722C27.789 14.9015 27.3655 15.6336 27.0956 16.4266C26.8258 17.2197 26.7149 18.0582 26.7693 18.8941C27.622 18.9029 28.4656 18.7181 29.2365 18.3536C30.0074 17.9891 30.6856 17.4544 31.2199 16.7898Z" fill="white"/>
<path d="M59.084 37.3171H52.5756L51.0126 41.9322H48.2559L54.4205 24.8574H57.2847L63.4493 41.9322H60.6456L59.084 37.3171ZM53.2496 35.1874H58.4086L55.8654 27.6974H55.7942L53.2496 35.1874Z" fill="white"/>
<path d="M76.7636 35.7073C76.7636 39.5758 74.693 42.0613 71.5684 42.0613C70.7769 42.1027 69.9897 41.9203 69.297 41.5351C68.6043 41.15 68.034 40.5775 67.6515 39.8833H67.5924V46.0493H65.0371V29.4822H67.5105V31.5527H67.5575C67.9576 30.8618 68.5375 30.2923 69.2355 29.9048C69.9335 29.5172 70.7235 29.3262 71.5214 29.3519C74.6809 29.3519 76.7636 31.8495 76.7636 35.7073ZM74.1371 35.7073C74.1371 33.1869 72.8346 31.5299 70.8473 31.5299C68.8949 31.5299 67.5817 33.2218 67.5817 35.7073C67.5817 38.2156 68.8949 39.8954 70.8473 39.8954C72.8346 39.8954 74.1371 38.2505 74.1371 35.7073Z" fill="white"/>
<path d="M90.4648 35.7073C90.4648 39.5758 88.3942 42.0613 85.2696 42.0613C84.478 42.1027 83.6909 41.9203 82.9981 41.5351C82.3054 41.1499 81.7352 40.5775 81.3527 39.8833H81.2936V46.0493H78.7383V29.4821H81.2117V31.5527H81.2587C81.6587 30.8618 82.2386 30.2923 82.9366 29.9048C83.6346 29.5172 84.4246 29.3262 85.2225 29.3519C88.3821 29.3519 90.4648 31.8495 90.4648 35.7073ZM87.8383 35.7073C87.8383 33.1869 86.5358 31.5299 84.5485 31.5299C82.5961 31.5299 81.2829 33.2218 81.2829 35.7073C81.2829 38.2156 82.5961 39.8954 84.5485 39.8954C86.5358 39.8954 87.8383 38.2505 87.8383 35.7073H87.8383Z" fill="white"/>
<path d="M99.5201 37.1743C99.7094 38.8675 101.354 39.9793 103.602 39.9793C105.756 39.9793 107.305 38.8675 107.305 37.3407C107.305 36.0154 106.371 35.2218 104.158 34.678L101.945 34.1449C98.8097 33.3876 97.3542 31.9213 97.3542 29.5419C97.3542 26.5958 99.9216 24.5723 103.567 24.5723C107.175 24.5723 109.649 26.5958 109.732 29.5419H107.152C106.998 27.8379 105.589 26.8093 103.531 26.8093C101.472 26.8093 100.064 27.85 100.064 29.3646C100.064 30.5718 100.964 31.2821 103.164 31.8259L105.046 32.2878C108.549 33.1163 110.004 34.5236 110.004 37.0211C110.004 40.2155 107.46 42.2163 103.413 42.2163C99.6261 42.2163 97.0695 40.2625 96.9043 37.1741L99.5201 37.1743Z" fill="white"/>
<path d="M115.52 26.5371V29.4832H117.887V31.5067H115.52V38.3696C115.52 39.4358 115.994 39.9326 117.035 39.9326C117.316 39.9277 117.596 39.908 117.875 39.8735V41.885C117.407 41.9724 116.932 42.012 116.456 42.0031C113.936 42.0031 112.953 41.0565 112.953 38.6422V31.5067H111.143V29.4832H112.953V26.5371H115.52Z" fill="white"/>
<path d="M119.258 35.7082C119.258 31.7914 121.565 29.3301 125.162 29.3301C128.771 29.3301 131.068 31.7913 131.068 35.7082C131.068 39.6359 128.783 42.0864 125.162 42.0864C121.542 42.0864 119.258 39.6359 119.258 35.7082ZM128.464 35.7082C128.464 33.0214 127.233 31.4355 125.162 31.4355C123.091 31.4355 121.861 33.0334 121.861 35.7082C121.861 38.4059 123.091 39.9796 125.162 39.9796C127.233 39.9796 128.464 38.4059 128.464 35.7082H128.464Z" fill="white"/>
<path d="M133.174 29.482H135.611V31.6009H135.67C135.835 30.9391 136.223 30.3543 136.768 29.9447C137.313 29.5351 137.983 29.3258 138.664 29.3518C138.959 29.3507 139.253 29.3827 139.54 29.4471V31.8373C139.168 31.7237 138.78 31.6715 138.392 31.6828C138.021 31.6678 137.651 31.7332 137.307 31.8747C136.963 32.0162 136.655 32.2303 136.402 32.5024C136.149 32.7745 135.958 33.0981 135.842 33.451C135.725 33.804 135.687 34.1778 135.729 34.547V41.9309H133.174L133.174 29.482Z" fill="white"/>
<path d="M151.321 38.2756C150.978 40.5355 148.777 42.0864 145.961 42.0864C142.34 42.0864 140.092 39.66 140.092 35.7673C140.092 31.8626 142.352 29.3301 145.854 29.3301C149.298 29.3301 151.464 31.696 151.464 35.4706V36.3461H142.671V36.5005C142.631 36.9586 142.688 37.4202 142.84 37.8545C142.991 38.2887 143.233 38.6858 143.55 39.0193C143.867 39.3528 144.251 39.6151 144.677 39.7888C145.103 39.9625 145.561 40.0435 146.02 40.0266C146.624 40.0832 147.23 39.9433 147.748 39.6278C148.266 39.3124 148.668 38.8381 148.895 38.2756L151.321 38.2756ZM142.683 34.5602H148.907C148.93 34.1482 148.868 33.736 148.724 33.3493C148.58 32.9627 148.357 32.6099 148.071 32.3133C147.784 32.0166 147.439 31.7824 147.058 31.6253C146.676 31.4683 146.266 31.3918 145.854 31.4006C145.438 31.3982 145.025 31.4781 144.64 31.6359C144.255 31.7936 143.905 32.0261 143.61 32.3199C143.315 32.6136 143.082 32.9628 142.923 33.3473C142.764 33.7319 142.682 34.1441 142.683 34.5602V34.5602Z" fill="white"/>
<path d="M52.9283 12.0035C53.4641 11.965 54.0016 12.0459 54.5023 12.2404C55.0029 12.4349 55.4542 12.738 55.8235 13.128C56.1928 13.518 56.471 13.9851 56.6379 14.4956C56.8048 15.0061 56.8564 15.5473 56.7888 16.0801C56.7888 18.7012 55.3722 20.2079 52.9283 20.2079H49.9648V12.0035H52.9283ZM51.2391 19.0476H52.786C53.1688 19.0705 53.5519 19.0077 53.9074 18.8638C54.2629 18.72 54.5818 18.4987 54.841 18.216C55.1002 17.9334 55.2931 17.5965 55.4056 17.2299C55.5182 16.8633 55.5476 16.4762 55.4917 16.0968C55.5435 15.7189 55.5112 15.3342 55.3969 14.9703C55.2826 14.6064 55.0892 14.2723 54.8306 13.9919C54.572 13.7115 54.2546 13.4917 53.9011 13.3484C53.5477 13.2051 53.1669 13.1417 52.786 13.1629H51.2391V19.0476Z" fill="white"/>
<path d="M58.2287 17.11C58.1897 16.7031 58.2363 16.2926 58.3653 15.9047C58.4943 15.5169 58.703 15.1603 58.9779 14.8578C59.2528 14.5553 59.588 14.3136 59.9617 14.1483C60.3355 13.9829 60.7398 13.8975 61.1485 13.8975C61.5573 13.8975 61.9615 13.9829 62.3353 14.1483C62.7091 14.3136 63.0442 14.5553 63.3191 14.8578C63.594 15.1603 63.8027 15.5169 63.9317 15.9047C64.0608 16.2926 64.1073 16.7031 64.0684 17.11C64.108 17.5173 64.062 17.9284 63.9334 18.3169C63.8047 18.7053 63.5961 19.0626 63.3211 19.3656C63.0461 19.6687 62.7108 19.9109 62.3366 20.0766C61.9625 20.2424 61.5577 20.328 61.1485 20.328C60.7393 20.328 60.3346 20.2424 59.9604 20.0766C59.5862 19.9109 59.2509 19.6687 58.9759 19.3656C58.7009 19.0626 58.4924 18.7053 58.3637 18.3169C58.235 17.9284 58.189 17.5173 58.2287 17.11ZM62.8115 17.11C62.8115 15.7679 62.2086 14.983 61.1505 14.983C60.0884 14.983 59.4909 15.7679 59.4909 17.11C59.4909 18.4628 60.0884 19.2416 61.1505 19.2416C62.2086 19.2416 62.8115 18.4575 62.8115 17.11H62.8115Z" fill="white"/>
<path d="M71.8296 20.2081H70.562L69.2824 15.6481H69.1857L67.9114 20.2081H66.6559L64.9492 14.0166H66.1886L67.2977 18.7411H67.389L68.662 14.0166H69.8342L71.1072 18.7411H71.2039L72.3076 14.0166H73.5295L71.8296 20.2081Z" fill="white"/>
<path d="M74.9668 14.0162H76.1431V14.9998H76.2344C76.3893 14.6465 76.6505 14.3504 76.9817 14.1527C77.3129 13.9549 77.6976 13.8655 78.082 13.8967C78.3833 13.8741 78.6858 13.9195 78.9671 14.0296C79.2484 14.1398 79.5014 14.3118 79.7072 14.5329C79.913 14.7541 80.0664 15.0187 80.1561 15.3072C80.2457 15.5957 80.2693 15.9007 80.2251 16.1996V20.2077H79.0032V16.5064C79.0032 15.5114 78.5708 15.0166 77.6671 15.0166C77.4626 15.0071 77.2584 15.0419 77.0686 15.1187C76.8787 15.1954 76.7078 15.3123 76.5673 15.4614C76.4269 15.6104 76.3204 15.788 76.255 15.9821C76.1897 16.1761 76.1671 16.382 76.1887 16.5856V20.2078H74.9668L74.9668 14.0162Z" fill="white"/>
<path d="M82.1719 11.5996H83.3938V20.2081H82.1719V11.5996Z" fill="white"/>
<path d="M85.0919 17.1101C85.053 16.7032 85.0996 16.2926 85.2286 15.9048C85.3577 15.5169 85.5664 15.1603 85.8414 14.8578C86.1163 14.5553 86.4514 14.3137 86.8253 14.1483C87.1991 13.9829 87.6033 13.8975 88.0121 13.8975C88.4209 13.8975 88.8251 13.9829 89.199 14.1483C89.5728 14.3137 89.9079 14.5553 90.1828 14.8578C90.4578 15.1603 90.6665 15.5169 90.7956 15.9048C90.9246 16.2926 90.9712 16.7032 90.9323 17.1101C90.9719 17.5174 90.9259 17.9285 90.7971 18.317C90.6684 18.7055 90.4598 19.0627 90.1848 19.3658C89.9098 19.6688 89.5744 19.911 89.2002 20.0767C88.8261 20.2425 88.4213 20.3281 88.0121 20.3281C87.6029 20.3281 87.1981 20.2425 86.824 20.0767C86.4498 19.911 86.1144 19.6688 85.8394 19.3658C85.5644 19.0627 85.3558 18.7055 85.2271 18.317C85.0983 17.9285 85.0523 17.5174 85.0919 17.1101ZM89.6748 17.1101C89.6748 15.768 89.0719 14.9832 88.0138 14.9832C86.9516 14.9832 86.3542 15.768 86.3542 17.1101C86.3542 18.463 86.9517 19.2418 88.0138 19.2418C89.0719 19.2417 89.6748 18.4576 89.6748 17.1101H89.6748Z" fill="white"/>
<path d="M92.2188 18.4575C92.2188 17.343 93.0486 16.7005 94.5216 16.6092L96.1987 16.5125V15.9781C96.1987 15.3241 95.7664 14.9549 94.9312 14.9549C94.249 14.9549 93.7764 15.2053 93.6407 15.6431H92.4578C92.5826 14.5796 93.583 13.8975 94.9875 13.8975C96.5398 13.8975 97.4153 14.6702 97.4153 15.9781V20.2085H96.239V19.3384H96.1423C95.9461 19.6505 95.6705 19.9049 95.3438 20.0757C95.0171 20.2465 94.6509 20.3275 94.2826 20.3105C94.0227 20.3375 93.76 20.3098 93.5114 20.2291C93.2629 20.1484 93.034 20.0165 92.8396 19.8419C92.6451 19.6673 92.4894 19.4539 92.3825 19.2155C92.2755 18.977 92.2198 18.7188 92.2188 18.4575ZM96.1987 17.9285V17.4108L94.6868 17.5075C93.8341 17.5646 93.4474 17.8546 93.4474 18.4004C93.4474 18.9577 93.9308 19.282 94.5955 19.282C94.7903 19.3017 94.987 19.282 95.174 19.2241C95.361 19.1663 95.5345 19.0714 95.684 18.9451C95.8336 18.8188 95.9563 18.6637 96.0447 18.4891C96.1331 18.3144 96.1855 18.1238 96.1987 17.9285Z" fill="white"/>
<path d="M99.0215 17.1097C99.0215 15.1533 100.027 13.9139 101.592 13.9139C101.978 13.8961 102.363 13.9887 102.699 14.1811C103.035 14.3735 103.309 14.6575 103.49 15.0001H103.582V11.5996H104.803V20.2081H103.633V19.2299H103.536C103.341 19.5702 103.057 19.8508 102.714 20.0412C102.372 20.2316 101.983 20.3246 101.592 20.3102C100.016 20.3102 99.0215 19.0708 99.0215 17.1097ZM100.284 17.1097C100.284 18.4229 100.903 19.2132 101.938 19.2132C102.968 19.2132 103.604 18.4115 103.604 17.1151C103.604 15.8247 102.961 15.0116 101.938 15.0116C100.909 15.0116 100.284 15.8072 100.284 17.1097H100.284Z" fill="white"/>
<path d="M109.86 17.11C109.821 16.7031 109.867 16.2926 109.996 15.9047C110.125 15.5169 110.334 15.1603 110.609 14.8578C110.884 14.5553 111.219 14.3136 111.593 14.1483C111.966 13.9829 112.371 13.8975 112.779 13.8975C113.188 13.8975 113.592 13.9829 113.966 14.1483C114.34 14.3136 114.675 14.5553 114.95 14.8578C115.225 15.1603 115.434 15.5169 115.563 15.9047C115.692 16.2926 115.738 16.7031 115.699 17.11C115.739 17.5173 115.693 17.9284 115.564 18.3169C115.436 18.7053 115.227 19.0626 114.952 19.3656C114.677 19.6687 114.342 19.9109 113.967 20.0766C113.593 20.2424 113.189 20.328 112.779 20.328C112.37 20.328 111.965 20.2424 111.591 20.0766C111.217 19.9109 110.882 19.6687 110.607 19.3656C110.332 19.0626 110.123 18.7053 109.995 18.3169C109.866 17.9284 109.82 17.5173 109.86 17.11ZM114.442 17.11C114.442 15.7679 113.839 14.983 112.781 14.983C111.719 14.983 111.122 15.7679 111.122 17.11C111.122 18.4628 111.719 19.2416 112.781 19.2416C113.839 19.2416 114.442 18.4575 114.442 17.11Z" fill="white"/>
<path d="M117.338 14.0162H118.514V14.9998H118.605C118.76 14.6465 119.022 14.3504 119.353 14.1527C119.684 13.9549 120.069 13.8655 120.453 13.8967C120.754 13.8741 121.057 13.9195 121.338 14.0296C121.62 14.1398 121.872 14.3118 122.078 14.5329C122.284 14.7541 122.438 15.0187 122.527 15.3072C122.617 15.5957 122.64 15.9007 122.596 16.1996V20.2077H121.374V16.5064C121.374 15.5114 120.942 15.0166 120.038 15.0166C119.834 15.0071 119.629 15.0419 119.44 15.1187C119.25 15.1954 119.079 15.3123 118.938 15.4614C118.798 15.6104 118.691 15.788 118.626 15.9821C118.561 16.1761 118.538 16.382 118.56 16.5856V20.2078H117.338V14.0162Z" fill="white"/>
<path d="M129.501 12.4746V14.0443H130.843V15.0736H129.501V18.2573C129.501 18.9058 129.768 19.1898 130.377 19.1898C130.532 19.1893 130.688 19.1799 130.843 19.1616V20.1794C130.623 20.2187 130.401 20.2396 130.178 20.2419C128.819 20.2419 128.278 19.7638 128.278 18.5701V15.0735H127.295V14.0443H128.278V12.4746H129.501Z" fill="white"/>
<path d="M132.512 11.5996H133.723V15.0116H133.82C133.982 14.655 134.25 14.3572 134.588 14.1587C134.926 13.9603 135.317 13.8708 135.707 13.9025C136.007 13.8862 136.307 13.9362 136.585 14.049C136.863 14.1618 137.113 14.3346 137.316 14.5551C137.52 14.7755 137.673 15.0382 137.763 15.3244C137.854 15.6106 137.88 15.9132 137.84 16.2107V20.2081H136.617V16.5121C136.617 15.5232 136.156 15.0223 135.293 15.0223C135.083 15.0051 134.871 15.034 134.674 15.1069C134.476 15.1799 134.297 15.2951 134.148 15.4447C134 15.5942 133.886 15.7743 133.814 15.9725C133.742 16.1707 133.715 16.3821 133.734 16.592V20.2081H132.512L132.512 11.5996Z" fill="white"/>
<path d="M144.964 18.5368C144.798 19.1027 144.438 19.5922 143.948 19.9196C143.457 20.2471 142.867 20.3917 142.281 20.3281C141.873 20.3389 141.468 20.2607 141.093 20.0991C140.718 19.9375 140.383 19.6963 140.111 19.3923C139.839 19.0882 139.636 18.7286 139.517 18.3383C139.398 17.948 139.365 17.5365 139.421 17.1323C139.367 16.7268 139.4 16.3144 139.519 15.923C139.638 15.5316 139.84 15.1703 140.11 14.8636C140.381 14.5568 140.714 14.3118 141.088 14.1452C141.462 13.9785 141.867 13.8941 142.276 13.8976C143.998 13.8976 145.038 15.0746 145.038 17.0188V17.4452H140.666V17.5137C140.647 17.7409 140.675 17.9696 140.75 18.1851C140.824 18.4006 140.943 18.5982 141.098 18.7652C141.253 18.9322 141.442 19.065 141.651 19.1549C141.861 19.2448 142.087 19.2899 142.315 19.2874C142.607 19.3225 142.903 19.2699 143.165 19.1362C143.428 19.0026 143.644 18.7939 143.788 18.5368L144.964 18.5368ZM140.666 16.5415H143.793C143.808 16.3337 143.78 16.125 143.71 15.9287C143.64 15.7325 143.53 15.5531 143.386 15.402C143.243 15.251 143.069 15.1316 142.877 15.0516C142.684 14.9716 142.477 14.9328 142.269 14.9375C142.058 14.9349 141.848 14.9746 141.652 15.0542C141.456 15.1339 141.279 15.252 141.129 15.4015C140.98 15.5509 140.862 15.7288 140.782 15.9246C140.703 16.1204 140.663 16.3301 140.666 16.5415H140.666Z" fill="white"/>
</g>
<defs>
<clipPath id="clip0_181_4042">
<rect width="164.538" height="55" fill="white" transform="translate(0.917969)"/>
</clipPath>
</defs>
</svg>
