<svg width="107" height="106" viewBox="0 0 107 106" fill="none" xmlns="http://www.w3.org/2000/svg">
<rect opacity="0.14" x="0.242188" width="106" height="106" rx="30" fill="#02455A"/>
<path d="M66.5 38V34.25C66.5 34.0511 66.421 33.8603 66.2803 33.7197C66.1397 33.579 65.9489 33.5 65.75 33.5H40.25C40.0511 33.5 39.8603 33.579 39.7197 33.7197C39.579 33.8603 39.5 34.0511 39.5 34.25V38" fill="#02455A"/>
<path d="M67.25 39.5H38.75C37.3576 39.5 36.0223 40.0531 35.0377 41.0377C34.0531 42.0223 33.5 43.3576 33.5 44.75V64.25C33.5 64.4489 33.579 64.6397 33.7197 64.7803C33.8603 64.921 34.0511 65 34.25 65H39.5V71.75C39.5 71.9489 39.579 72.1397 39.7197 72.2803C39.8603 72.421 40.0511 72.5 40.25 72.5H65.75C65.9489 72.5 66.1397 72.421 66.2803 72.2803C66.421 72.1397 66.5 71.9489 66.5 71.75V65H71.75C71.9489 65 72.1397 64.921 72.2803 64.7803C72.421 64.6397 72.5 64.4489 72.5 64.25V44.75C72.5 43.3576 71.9469 42.0223 70.9623 41.0377C69.9777 40.0531 68.6424 39.5 67.25 39.5ZM62.75 68.375C62.75 68.4745 62.7105 68.5698 62.6402 68.6402C62.5698 68.7105 62.4745 68.75 62.375 68.75H43.625C43.5255 68.75 43.4302 68.7105 43.3598 68.6402C43.2895 68.5698 43.25 68.4745 43.25 68.375V54.125C43.25 54.0255 43.2895 53.9302 43.3598 53.8598C43.4302 53.7895 43.5255 53.75 43.625 53.75H62.375C62.4745 53.75 62.5698 53.7895 62.6402 53.8598C62.7105 53.9302 62.75 54.0255 62.75 54.125V68.375ZM65.9375 48.4925C65.4786 48.5294 65.0194 48.4246 64.6219 48.1923C64.2244 47.96 63.9078 47.6114 63.7147 47.1934C63.5216 46.7755 63.4614 46.3084 63.5421 45.8551C63.6229 45.4019 63.8407 44.9843 64.1662 44.6587C64.4918 44.3332 64.9094 44.1154 65.3626 44.0346C65.8159 43.9539 66.283 44.0141 66.7009 44.2072C67.1189 44.4003 67.4675 44.7169 67.6998 45.1144C67.9321 45.5119 68.0369 45.9711 68 46.43C67.9572 46.9627 67.7261 47.4628 67.3482 47.8407C66.9703 48.2186 66.4702 48.4497 65.9375 48.4925Z" fill="#02455A"/>
</svg>
