<svg width="107" height="107" viewBox="0 0 107 107" fill="none" xmlns="http://www.w3.org/2000/svg">
<rect opacity="0.14" x="0.242188" y="0.464844" width="106" height="106" rx="30" fill="#02455A"/>
<path d="M37.9375 57.5V52.4375H43V49.0625H37.9375V44H34.5625V49.0625H29.5V52.4375H34.5625V57.5H37.9375Z" fill="#02455A"/>
<path d="M55 53C60.799 53 65.5 48.299 65.5 42.5C65.5 36.701 60.799 32 55 32C49.201 32 44.5 36.701 44.5 42.5C44.5 48.299 49.201 53 55 53Z" fill="#02455A"/>
<path d="M55 56C48.4919 56 35.5 60.02 35.5 68V74H74.5V68C74.5 60.02 61.5081 56 55 56Z" fill="#02455A"/>
</svg>
