<svg width="107" height="106" viewBox="0 0 107 106" fill="none" xmlns="http://www.w3.org/2000/svg">
<rect opacity="0.14" x="0.242188" width="106" height="106" rx="30" fill="#02455A"/>
<path d="M72.875 39.5H68V68C68 68.7956 68.3161 69.5587 68.8787 70.1213C69.4413 70.6839 70.2044 71 71 71C71.7956 71 72.5587 70.6839 73.1213 70.1213C73.6839 69.5587 74 68.7956 74 68V40.625C74 40.3266 73.8815 40.0405 73.6705 39.8295C73.4595 39.6185 73.1734 39.5 72.875 39.5Z" fill="#02455A"/>
<path d="M69.4203 73.7891C68.1514 73.441 67.0318 72.6861 66.2333 71.6404C65.4348 70.5946 65.0016 69.3158 65 68V33.125C65 32.8266 64.8815 32.5405 64.6705 32.3295C64.4595 32.1185 64.1734 32 63.875 32H33.125C32.8266 32 32.5405 32.1185 32.3295 32.3295C32.1185 32.5405 32 32.8266 32 33.125V68.75C32 70.1424 32.5531 71.4777 33.5377 72.4623C34.5223 73.4469 35.8576 74 37.25 74H69.3922C69.4188 74.001 69.4448 73.9921 69.4651 73.975C69.4855 73.9578 69.4987 73.9337 69.5022 73.9073C69.5057 73.881 69.4993 73.8542 69.4842 73.8323C69.469 73.8105 69.4462 73.795 69.4203 73.7891ZM38 48.5V39.5H47V48.5H38ZM59 66.5H38V63.5H59V66.5ZM59 60.5H38V57.5H59V60.5ZM59 54.5H38V51.5H59V54.5ZM59 48.5H50V45.5H59V48.5ZM59 42.5H50V39.5H59V42.5Z" fill="#02455A"/>
</svg>
