<svg width="24" height="24" viewBox="0 0 24 24" fill="none" xmlns="http://www.w3.org/2000/svg">
<path d="M17 21.0008C15.3463 20.9993 13.7183 20.5906 12.26 19.8108L11.81 19.5608C8.70075 17.8891 6.15169 15.34 4.48 12.2308L4.23 11.7808C3.42982 10.3142 3.00713 8.67146 3 7.00076V6.33076C2.99958 5.79772 3.21196 5.28656 3.59 4.91076L5.28 3.22076C5.44413 3.05536 5.67581 2.97564 5.90696 3.00502C6.13811 3.0344 6.34248 3.16956 6.46 3.37076L8.71 7.23076C8.93753 7.62365 8.87183 8.12052 8.55 8.44076L6.66 10.3308C6.50304 10.486 6.46647 10.7258 6.57 10.9208L6.92 11.5808C8.17704 13.9092 10.0893 15.818 12.42 17.0708L13.08 17.4308C13.275 17.5343 13.5148 17.4977 13.67 17.3408L15.56 15.4508C15.8802 15.129 16.3771 15.0633 16.77 15.2908L20.63 17.5408C20.8312 17.6583 20.9664 17.8627 20.9957 18.0938C21.0251 18.325 20.9454 18.5567 20.78 18.7208L19.09 20.4108C18.7142 20.7888 18.203 21.0012 17.67 21.0008H17Z" fill="#02455A"/>
</svg>
