<svg width="356" height="86" viewBox="0 0 356 86" fill="none" xmlns="http://www.w3.org/2000/svg">
<path d="M354.692 6.9013C355.238 6.97971 355.745 6.60009 355.823 6.0534C355.902 5.50671 355.522 4.99996 354.975 4.92156L354.692 6.9013ZM0.0677415 81.3659C42.2035 88.7447 72.2091 85.8583 96.8504 77.8075C121.458 69.7678 140.66 56.5883 161.117 43.5547C181.591 30.5096 203.393 17.5568 233.35 9.75089C263.307 1.94481 301.484 -0.729591 354.692 6.9013L354.975 4.92156C301.566 -2.73827 263.113 -0.0716066 232.845 7.81552C202.577 15.7028 180.56 28.7954 160.042 41.868C139.506 54.9523 120.542 67.963 96.2292 75.9064C71.9507 83.8387 42.2832 86.7282 0.412727 79.3959L0.0677415 81.3659Z" fill="#02455A"/>
</svg>
