<svg width="357" height="86" viewBox="0 0 357 86" fill="none" xmlns="http://www.w3.org/2000/svg">
<path d="M355.067 6.9013C355.613 6.97971 356.12 6.60009 356.198 6.0534C356.277 5.50671 355.897 4.99996 355.35 4.92156L355.067 6.9013ZM0.442742 81.3659C42.5785 88.7447 72.5841 85.8583 97.2254 77.8075C121.833 69.7678 141.035 56.5883 161.492 43.5547C181.966 30.5096 203.768 17.5568 233.725 9.75089C263.682 1.94481 301.859 -0.729591 355.067 6.9013L355.35 4.92156C301.941 -2.73827 263.488 -0.0716066 233.22 7.81552C202.952 15.7028 180.935 28.7954 160.417 41.868C139.881 54.9523 120.917 67.963 96.6042 75.9064C72.3257 83.8387 42.6582 86.7282 0.787727 79.3959L0.442742 81.3659Z" fill="#02455A"/>
</svg>
